<svg xmlns="http://www.w3.org/2000/svg" xmlns:xlink="http://www.w3.org/1999/xlink" version="1.1" id="Layer_1" x="0px" y="0px" width="100px" height="100px" viewBox="0 0 100 100" enable-background="new 0 0 100 100" xml:space="preserve">
<polygon fill="#000000" points="78.279,17.001 61.278,17.001 61.278,0 39.642,0 39.642,17.001 22.642,17.001 22.642,38.636   39.642,38.636 39.642,55.637 61.278,55.637 61.278,38.636 78.279,38.636 "/>
<g>
	<g>
		<path fill="#000000" d="M87.118,57.381V38.658c0-2.657,2.174-4.82,4.848-4.82c2.66,0,4.816,2.164,4.816,4.82v25.639    c0,3.546-1.276,6.969-3.564,9.647L77.227,90.92c-1.584,1.494-1.977,2.817-1.977,4.823v3.091h-17.4l-0.022-7.356    c0-2.802-0.229-6.544,3.281-10.217l20.288-20.37c0.72-0.699,1.668-1.08,2.674-1.08c2.123,0,3.849,1.721,3.849,3.842    c0,0.915-0.324,1.806-0.916,2.502L77.215,76.64c-0.63,0.744-1.706,2.146-2.236,3.861c-0.29,0.893-0.372,1.763-0.386,2.756h3.147    c0.014-0.708,0.063-1.275,0.233-1.808c0.31-0.989,0.924-1.882,1.386-2.453l9.933-10.902c1.25-1.259,1.937-2.891,1.937-4.602    C91.227,60.914,89.678,58.551,87.118,57.381z"/>
	</g>
</g>
<g>
	<g>
		<path fill="#000000" d="M13.798,57.381V38.658c0-2.657-2.174-4.82-4.848-4.82c-2.663-0.002-4.815,2.164-4.815,4.82v25.639    c0,3.546,1.273,6.969,3.564,9.647l15.99,16.976c1.585,1.494,1.975,2.817,1.975,4.823v3.091h17.403l0.021-7.356    c0-2.802,0.229-6.544-3.275-10.217l-20.289-20.37c-0.725-0.694-1.674-1.076-2.678-1.076c-2.121,0-3.849,1.722-3.849,3.838    c0,0.92,0.322,1.808,0.914,2.507l9.791,10.482c0.629,0.742,1.705,2.145,2.238,3.859c0.285,0.893,0.368,1.763,0.387,2.759h-3.153    c-0.011-0.712-0.065-1.281-0.232-1.811c-0.307-0.991-0.923-1.881-1.385-2.45l-9.936-10.905c-1.248-1.261-1.931-2.891-1.931-4.604    C9.69,60.914,11.236,58.551,13.798,57.381z"/>
	</g>
</g>
</svg>