<svg xmlns="http://www.w3.org/2000/svg" xmlns:xlink="http://www.w3.org/1999/xlink" version="1.1" id="Your_Icon" x="0px" y="0px" width="100px" height="100px" viewBox="0 0 100 100" enable-background="new 0 0 100 100" xml:space="preserve">
<g>
	<path d="M55.371,11.629C50.564,2.297,39.189-0.737,29.715,1.926c2.474,9.451,10.408,17.161,20.668,17.189   c-3.341,3.268-3.468,6.352-0.383,9.251c2.844-6.817,9.319-14.264,15.624-18.068c-1.302-1.671-2.604-3.341-3.906-5.012   C59.367,7.205,57.275,9.303,55.371,11.629z"/>
</g>
<path d="M67.843,22.874c-8.254,0-14.818,4.25-17.843,10.915c-3.025-6.666-9.589-10.915-17.843-10.915  c-42.13,0-26.578,81.057,10.963,75.889c3.223-0.444,5.414-1.515,6.88-3.044c1.466,1.529,3.657,2.6,6.88,3.044  C94.421,103.931,109.973,22.874,67.843,22.874z M29.233,37.432c-7.044,2.937-10.386,11.057-7.449,18.101  c0.576,1.383-0.077,2.97-1.459,3.546c-0.341,0.142-0.695,0.209-1.042,0.209c-1.062,0-2.07-0.628-2.504-1.668  c-4.088-9.804,0.563-21.106,10.367-25.193c1.384-0.577,2.97,0.076,3.546,1.459S30.615,36.856,29.233,37.432z"/>
</svg>